<?xml version="1.0" encoding="UTF-8"?>
<svg id="Layer_1" data-name="Layer 1" xmlns="http://www.w3.org/2000/svg" viewBox="0 0 512 512">
  <defs>
    <style>
      .cls-1 {
        fill: #57321d;
      }

      .cls-1, .cls-2 {
        stroke-width: 0px;
      }

      .cls-2 {
        fill: #fff;
      }
    </style>
  </defs>
  <rect class="cls-1" width="512" height="512" rx="111.65" ry="111.65"/>
  <g>
    <path class="cls-2" d="m261.02,259.16c49.28,0,98.56.08,147.84-.06,10.67-.03,20,2.89,27.72,10.28,6.28,6.01,9.73,13.32,9.65,22.19-.11,10.95-.45,21.92,0,32.85.91,22.15-18.65,35.3-35.57,35.13-12.57-.13-25.15.2-37.72-.14-4.52-.12-6.87,1.3-8.76,5.38-10.43,22.41-24.76,41.92-44.79,56.68-84.8,62.47-212.13,16.19-225.47-95.33-1.92-16.04-1.83-32.37-1.76-48.57.06-13.83,5.32-18.38,19.18-18.39,49.89-.04,99.78-.02,149.67-.02Zm81.66,31.16H124.52c-3.67,47.41,9.24,87.26,51.32,112.55,40.72,24.47,82.53,22.19,121.61-3.65,35.31-23.34,51.14-66.17,45.23-108.91Zm32.58,38.86c11.58,0,23.09,0,34.59,0,3.78,0,5.49-2.03,5.49-5.7.01-9.5.27-19-.15-28.48-.08-1.87-2.71-5.14-4.27-5.2-11.62-.44-23.27-.24-35.67-.24v39.62Z"/>
    <path class="cls-2" d="m296.16,107.98c1.1,15.06-4.94,27.04-15.92,37.01-12.14,11.02-24.03,22.33-36.09,33.44-4.77,4.4-7.02,9.57-6.7,16.17.47,9.81-5.07,16.63-13.73,17.62-10.02,1.15-16.61-3.78-18.35-14.11-2.37-14.09.79-26.55,11.56-36.52,12.33-11.41,24.55-22.95,37.11-34.12,7.63-6.78,10.88-14.68,9.3-24.84-1.87-12.06,2.88-19.71,12.51-20.97,10.47-1.37,19.2,6.23,20.28,17.82.26,2.81.04,5.66.04,8.5Z"/>
    <path class="cls-2" d="m247.93,73.57c.07,13.36-4.82,24.42-14.68,33.43-10.46,9.56-20.74,19.34-31.14,28.97-4.6,4.27-7.79,9.15-8.42,15.63-1.12,11.42-7.67,17.62-17.27,16.7-9.54-.91-17.1-10.6-15.83-20.98,1.16-9.4,4.23-18.16,11.33-24.94,9.82-9.36,19.28-19.17,29.7-27.82,9.1-7.55,14.3-15.7,13.13-28.09-.85-9.01,5.49-15.18,14-16.03,8.66-.86,16.54,4.85,18.22,13.47.62,3.16.65,6.43.95,9.65Z"/>
    <path class="cls-2" d="m254.61,223.15c0-12.4,4.25-21.32,11.99-28.6,11.08-10.42,22.13-20.87,33.46-31.01,5.89-5.27,8.69-11.21,8.05-19.26-.87-10.88,5.06-18.03,14.51-18.61,10.01-.61,18.14,6.89,18.41,17.63.36,14.54-3.22,27.49-14.92,37.55-10.75,9.25-20.81,19.3-31.23,28.94-4.99,4.61-8.03,10-8.11,17-.09,8.73-5.12,14.31-13.3,15.23-8.47.95-16.03-4.06-17.92-12.06-.64-2.74-.79-5.6-.95-6.8Z"/>
  </g>
</svg>